<?xml version="1.0" encoding="utf-8"?>
<!-- Generator: Adobe Illustrator 24.0.2, SVG Export Plug-In . SVG Version: 6.00 Build 0)  -->
<svg version="1.1" id="Layer_1" xmlns="http://www.w3.org/2000/svg" xmlns:xlink="http://www.w3.org/1999/xlink" x="0px" y="0px"
	 viewBox="0 0 512 512" style="enable-background:new 0 0 512 512;" xml:space="preserve">
<style type="text/css">
	.st0{fill:#FF0000;}
	.st1{fill:#FFFFFF;}
</style>
<g>
	<g>
		<path class="st0" d="M255.9773,505.6867c-137.8538,0-250.0032-112.1494-250.0032-249.9995
			c0-137.8511,112.1494-250.0005,250.0032-250.0005c137.8511,0,250.0005,112.1494,250.0005,250.0005
			C505.9778,393.5374,393.8284,505.6867,255.9773,505.6867z"/>
	</g>
	<g>
		<g>
			<path class="st1" d="M275.0698,335.8973c-17.8832-1.3828-25.3971-10.2501-39.422-18.7641
				c-6.2495,32.7871-13.623,64.4731-31.0584,86.0862c-5.0732,6.2899-15.3186,3.1243-15.7251-4.9465
				c-2.6334-52.2365,15.4067-93.7047,24.2703-137.4455c-16.8335-28.336,2.0241-85.3714,37.529-71.3172
				c43.6977,17.2794-37.8327,105.3631,16.9005,116.3646c57.1409,11.486,80.4679-99.1476,45.03-135.1333
				c-51.1988-51.9549-149.0315-1.1809-137.0014,73.1936c2.2783,14.135,14.1414,20.6175,12.6311,34.591
				c-0.9377,8.6764-9.8894,13.678-17.7951,9.9812c-22.6655-10.5969-29.6931-33.8037-28.6159-63.3362
				c2.0287-56.3986,50.6767-95.8884,99.4724-101.3534c61.7121-6.9074,119.633,22.6609,127.6276,80.7084
				C377.9078,270.0406,341.0532,340.9916,275.0698,335.8973L275.0698,335.8973z"/>
		</g>
	</g>
</g>
</svg>
