<?xml version="1.0" encoding="utf-8"?>
<!-- Generator: Adobe Illustrator 24.0.2, SVG Export Plug-In . SVG Version: 6.00 Build 0)  -->
<svg version="1.1" id="Layer_1" xmlns="http://www.w3.org/2000/svg" xmlns:xlink="http://www.w3.org/1999/xlink" x="0px" y="0px"
	 viewBox="0 0 512 512" style="enable-background:new 0 0 512 512;" xml:space="preserve">
<style type="text/css">
	.st0{fill:#FF0000;}
	.st1{fill:#FFFFFF;}
</style>
<ellipse transform="matrix(0.7071 -0.7071 0.7071 0.7071 -105.8241 255.8913)" class="st0" cx="255.9761" cy="255.6866" rx="251.205" ry="251.2049"/>
<g>
	<path class="st1" d="M414.9249,215.4291c0-37.6512-30.5223-68.1735-68.1735-68.1735H169.9336
		c-37.6512,0-68.1735,30.5223-68.1735,68.1735v82.8684c0,37.6512,30.5223,68.1735,68.1735,68.1735h176.8178
		c37.6512,0,68.1735-30.5223,68.1735-68.1735V215.4291z M303.3656,261.0384l-70.5172,38.6765
		c-3.0653,1.6585-5.8224-0.5612-5.8224-4.0467v-79.3879c0-3.53,2.8429-5.7447,5.91-3.9979l71.0014,40.7114
		C307.0747,254.7808,306.541,259.3204,303.3656,261.0384z"/>
</g>
</svg>
