<?xml version="1.0" encoding="utf-8"?>
<!-- Generator: Adobe Illustrator 24.0.2, SVG Export Plug-In . SVG Version: 6.00 Build 0)  -->
<svg version="1.1" id="Layer_1" xmlns="http://www.w3.org/2000/svg" xmlns:xlink="http://www.w3.org/1999/xlink" x="0px" y="0px"
	 viewBox="0 0 512 512" style="enable-background:new 0 0 512 512;" xml:space="preserve">
<style type="text/css">
	.st0{fill:#0077FD;}
	.st1{fill:#FFFFFF;}
</style>
<g>
	<g>
		<g>
			<path class="st0" d="M255.9754,505.0844c-137.518,0-249.3971-111.8792-249.3971-249.3971
				c0-137.5189,111.8791-249.3981,249.3971-249.3981c137.5189,0,249.3981,111.8791,249.3981,249.3981
				C505.3735,393.2052,393.4944,505.0844,255.9754,505.0844z"/>
		</g>
	</g>
	<g>
		<g>
			<path class="st1" d="M350.6378,214.644c-68.1585,0-68.2473,67.9022-68.2473,68.251c0,0-4.6692,67.9865,68.2473,67.9865
				c0,0,54.8869,3.1213,60.3698-40.105c0.4842-3.8134-2.4769-7.2102-6.3205-7.2102h-19.0768c-2.7662,0-5.2587,1.7621-6.045,4.4147
				c-1.6723,5.6449-7.5287,14.7005-27.8888,14.7005c0,0-26.4233,1.7584-30.6568-23.6169c-0.6362-3.8161,2.433-7.2642,6.3022-7.2642
				h79.2406c3.4115,0,6.2381-2.6829,6.3543-6.0926C413.5368,267.4833,410.1967,214.644,350.6378,214.644z M324.847,268.0124
				c-2.5227,0-4.3159-2.4449-3.5406-4.8459c2.5383-7.8528,9.959-22.4882,30.0252-22.4882c20.6841,0,25.5693,15.4556,26.7208,23.1235
				c0.3341,2.2243-1.4289,4.2106-3.6788,4.2106H324.847z M242.9839,252.1878c-2.2353-0.7387-2.5575-3.7905-0.4577-4.8559
				c7.6102-3.8628,16.5705-12.2986,16.5705-30.6101c0-31.7424-22.1431-47.3152-50.2562-47.3152H121.036
				c-2.5776,0-4.6683,2.0897-4.6683,4.6683v168.4155c0,2.5786,2.0907,4.6683,4.6683,4.6683h87.7964
				c0,0,56.486,1.7337,56.486-52.5015C265.3221,294.6572,267.2159,260.1898,242.9839,252.1878z M157.1125,204.3491
				c0-1.8627,1.5103-3.3721,3.373-3.3721h48.3513c0,0,12.5439,0,12.5439,18.5083c0,18.5092-7.353,21.193-15.7458,21.193h-45.1495
				c-1.8627,0-3.373-1.5103-3.373-3.3721V204.3491z M206.2456,315.5884h-45.76c-1.8627,0-3.373-1.5094-3.373-3.3721v-40.8318
				c0-1.8618,1.5103-3.3721,3.373-3.3721h48.3513c0,0,18.7738-0.1721,18.685,24.4782
				C227.5219,313.2543,213.5986,315.4163,206.2456,315.5884z M312.4047,176.5042v15.2039c0,1.8453,1.4957,3.3419,3.341,3.3419
				h66.6711c1.8453,0,3.3419-1.4966,3.3419-3.3419v-15.2039c0-1.8453-1.4966-3.341-3.3419-3.341h-66.6711
				C313.9004,173.1632,312.4047,174.6589,312.4047,176.5042z"/>
		</g>
	</g>
</g>
</svg>
