<?xml version="1.0" encoding="utf-8"?>
<!-- Generator: Adobe Illustrator 24.0.2, SVG Export Plug-In . SVG Version: 6.00 Build 0)  -->
<svg version="1.1" id="Layer_1" xmlns="http://www.w3.org/2000/svg" xmlns:xlink="http://www.w3.org/1999/xlink" x="0px" y="0px"
	 viewBox="0 0 512 512" style="enable-background:new 0 0 512 512;" xml:space="preserve">
<style type="text/css">
	.st0{fill:#FEFB01;}
	.st1{fill:#FFFFFF;}
</style>
<ellipse transform="matrix(0.7071 -0.7071 0.7071 0.7071 -105.7337 255.8735)" class="st0" cx="255.9998" cy="255.5687" rx="245.5689" ry="245.5688"/>
<g>
	<path class="st1" d="M86.5359,345.2298c0-1.7738,0-3.5475,0-5.3219c2.1809-2.5275,4.4831-4.6784,8.0257-5.3801
		c27.937-5.5338,46.6267-23.3461,60.722-46.7284c11.8519-19.6596,9.9501-24.1556-11.891-31.8886
		c-1.2515-0.4433-2.5361-0.8033-3.7625-1.3072c-4.7194-1.9409-9.3887-4.0104-13.2883-7.3981
		c-9.7817-8.4984-3.9957-20.7476,7.5359-23.5249c8.4298-2.0303,15.7704,3.3945,23.9541,4.4127
		c5.4689,0.6808,7.6516-1.1603,6.9807-6.9849c-1.7292-14.9977-1.6838-30.08-0.9792-45.1414
		c1.3439-28.7164,15.4686-50.5912,39.3939-64.771c34.9347-20.7042,71.4485-20.9619,106.6337-0.3227
		c21.961,12.8817,36.1366,32.387,39.2138,58.5325c2.0027,17.0164,1.2056,34.0585-0.1353,51.089
		c-0.5823,7.3945,0.9288,8.7531,8.2425,7.0412c9.08-2.1252,16.6888-6.8061,26.124-2.6616c5.05,2.2183,9.4513,6.9904,9.3158,12.5045
		c-0.0924,3.7759-2.2936,7.2512-5.1424,9.7315c-4.362,3.7973-10.0458,5.906-15.3358,8.0496
		c-4.101,1.6617-8.3674,2.9518-12.3643,4.8253c-8.2498,3.8665-10.623,8.9711-6.7608,17.1352
		c13.3648,28.2511,33.0048,49.7035,64.774,57.153c3.8757,0.9086,6.983,2.4932,9.3348,5.6342c0,1.7744,0,3.5482,0,5.3219
		c-3.0099,6.195-8.3972,9.6054-14.5116,11.9235c-6.2047,2.353-12.4452,4.9852-19.1202,5.4125
		c-9.2068,0.589-14.053,4.6055-15.4588,14.1932c-1.3378,9.1199-4.0825,10.413-13.3807,9.6642
		c-2.2011-0.1776-4.3882-0.5847-6.5659-0.9717c-18.2086-3.2353-35.301-1.3905-50.2755,10.7014
		c-2.9218,2.3591-6.1669,4.33-9.3275,6.3799c-25.5087,16.5492-51.6356,18.4473-78.2803,2.9095
		c-7.2633-4.2357-14.1491-9.1199-21.1964-13.7242c-5.8326-3.8114-12.1017-5.9409-19.1031-7.002
		c-11.0443-1.6734-21.6262,0.8058-32.3734,1.9899c-5.5247,0.6092-10.8613-0.9656-11.1736-6.6794
		c-0.7519-13.7707-9.1903-17.137-20.7709-18.4099c-5.3942-0.5927-10.7234-2.7852-15.8078-4.9105
		C94.2298,354.3852,89.181,351.0923,86.5359,345.2298z"/>
</g>
</svg>
